<?xml version="1.0" encoding="UTF-8"?>
<svg id="Layer_2" data-name="Layer 2" xmlns="http://www.w3.org/2000/svg" viewBox="0 0 91.1 113.54">
  <defs>
    <style>
      .cls-1 {
        stroke-width: 0px;
      }
    </style>
  </defs>
  <g id="Layer_1-2" data-name="Layer 1">
    <path class="cls-1" d="M91.1,51.79C91.54,23.68,69.02.45,40.91,0,26.48-.21,12.53,5.79,2.65,16.51c-3.74,4.06-3.49,10.39.57,14.13,4.06,3.74,10.39,3.49,14.13-.57,6.03-6.53,14.48-10.24,23.24-10.07,8.2.13,15.92,3.49,21.71,9.48,5.8,5.98,8.92,13.8,8.79,22-.23,14.58-10.53,26.65-24.17,29.74l.09-5.96c.06-3.59-3.8-5.9-6.94-4.15l-29.44,16.39c-3.14,1.75-3.21,6.24-.13,8.08l28.91,17.3c3.08,1.85,7.01-.34,7.06-3.93l.12-7.38c24.73-3.16,44.08-24.13,44.49-49.77Z"/>
  </g>
</svg>