<?xml version="1.0" encoding="UTF-8"?>
<svg id="Layer_2" data-name="Layer 2" xmlns="http://www.w3.org/2000/svg" viewBox="0 0 185 100">
  <defs>
    <style>
      .cls-1 {
        fill: #f9f5e9;
        stroke-width: 0px;
      }
    </style>
  </defs>
  <g id="Layer_1-2" data-name="Layer 1">
    <path class="cls-1" d="M136.75.03c-15.89-.54-30.19,6.33-39.71,17.43-2.39,2.79-6.7,2.79-9.09,0C78.43,6.36,64.14-.51,48.25.03,21.57.94.07,23.17,0,49.87c-.07,27.68,22.34,50.13,50,50.13,15.2,0,28.81-6.79,37.98-17.49,2.37-2.77,6.67-2.77,9.04,0,9.17,10.7,22.78,17.49,37.98,17.49,27.66,0,50.07-22.46,50-50.13C184.93,23.17,163.43.94,136.75.03Z"/>
  </g>
</svg>